<?xml version="1.0" encoding="utf-8"?>
<!-- Generator: Adobe Illustrator 27.5.0, SVG Export Plug-In . SVG Version: 6.00 Build 0)  -->
<svg version="1.1" xmlns="http://www.w3.org/2000/svg" xmlns:xlink="http://www.w3.org/1999/xlink" x="0px" y="0px"
	 viewBox="0 0 841.89 623.62" style="enable-background:new 0 0 841.89 623.62;" xml:space="preserve">
<g id="bg">
	<g>
		<rect x="-0.001" y="-0.001" style="fill:#CDCED1;" width="841.891" height="623.622"/>
	</g>
</g>
<g id="graphics">
	<g>
		<path style="opacity:0.35;fill:#939598;" d="M369.815,209.743c-4.392-3.576-9.995-5.723-16.102-5.723h-17.427h-41.24H182.814
			c-14.792,0-26.781,11.989-26.781,26.781v0.971v218.561v4.222h-45.433v21.874c0,11.192,8.566,20.43,19.502,21.425h25.931v0.047
			h153.473c0.516,0,1.027-0.018,1.536-0.047h1.794c-0.364,0-0.72-0.036-1.08-0.054c13.736-1.143,24.531-12.644,24.531-26.677
			v-20.789c0-9.89,0-208.485,0-208.485h42.935v-12.322C379.222,221.542,375.554,214.422,369.815,209.743z"/>
		<path style="opacity:0.35;fill:#939598;" d="M657.916,330.299h-83.838c-10.44,0-18.935,8.494-18.935,18.933v129.733
			c0,10.443,8.494,18.936,18.935,18.936h83.838c10.44,0,18.933-8.492,18.933-18.936V349.231
			C676.849,338.793,668.356,330.299,657.916,330.299z"/>
		<g>
			<g>
				<path style="fill:#FFFFFF;stroke:#444444;stroke-width:3;stroke-linecap:round;stroke-linejoin:round;" d="M649.606,330.299
					c10.439,0,18.933,8.494,18.933,18.933v129.733c0,10.443-8.493,18.936-18.933,18.936h-83.838
					c-10.44,0-18.935-8.492-18.935-18.936V349.231c0-10.438,8.494-18.933,18.935-18.933H649.606z"/>
				<rect x="557.118" y="346.904" style="fill:#65CBE9;" width="100.759" height="124.13"/>
				<path style="fill:#FFFFFF;stroke:#444444;stroke-width:3;stroke-linecap:round;stroke-linejoin:round;" d="M607.497,477.985
					c-3.067,0-5.563,2.481-5.563,5.56c0,3.074,2.496,5.568,5.563,5.568c3.08,0,5.566-2.494,5.566-5.568
					C613.063,480.467,610.577,477.985,607.497,477.985z"/>
			</g>
			<g>
				<path style="fill:#A9CD68;stroke:#444444;stroke-width:3;stroke-miterlimit:10;" d="M573.425,399.456
					c0,18.218,14.762,32.982,32.979,32.982c18.214,0,32.979-14.765,32.979-32.982c0-18.212-14.766-32.979-32.979-32.979
					C588.187,366.478,573.425,381.244,573.425,399.456z"/>
				<path style="fill:#FFFFFF;stroke:#444444;stroke-width:3;stroke-miterlimit:10;" d="M606.411,399.456v-36.197
					c20.091,0,36.402,16.164,36.647,36.197H606.411z"/>
				<path style="fill:#36B8D1;stroke:#444444;stroke-width:3;stroke-miterlimit:10;" d="M639.388,399.253c0,0.073,0,0.14,0,0.203
					c0,18.218-14.765,32.982-32.977,32.982c-18.218,0-32.985-14.765-32.985-32.982c0-0.063,0.012-0.13,0.012-0.203H639.388z"/>
				<path style="fill:#FAD978;stroke:#444444;stroke-width:3;stroke-miterlimit:10;" d="M606.411,399.292l27.761-27.768
					c15.406,15.411,15.513,40.316,0.341,55.866L606.411,399.292z"/>
				<path style="fill:#FFFFFF;stroke:#444444;stroke-width:3;stroke-miterlimit:10;" d="M606.394,399.491l-16.488,32.234
					c-17.885-9.153-25.042-30.976-16.133-48.922L606.394,399.491z"/>
				<path style="fill:#F0777E;stroke:#444444;stroke-width:3;stroke-miterlimit:10;" d="M606.442,399.253l11.768,36.44
					c-20.219,6.529-41.894-4.436-48.648-24.523L606.442,399.253z"/>
				<path style="fill:#65CBE9;stroke:#444444;stroke-width:3;stroke-miterlimit:10;" d="M593.446,399.253
					c0,7.163,5.808,12.966,12.965,12.966c7.16,0,12.958-5.803,12.958-12.966c0-7.152-5.798-12.964-12.958-12.964
					C599.254,386.289,593.446,392.101,593.446,399.253z"/>
			</g>
			<rect x="569.412" y="450.448" style="fill:#FFFFFF;" width="66.863" height="4.145"/>
			<rect x="569.412" y="457.855" style="fill:#FFFFFF;" width="56.368" height="4.143"/>
		</g>
		<path style="opacity:0.35;fill:#939598;" d="M540.837,288.27c-12.873,0-10.899,9.578-10.899,22.449v163.832
			c0,12.879,10.475,23.35,23.348,23.35h18.055c12.456-3.492,21.037-11.727,21.037-26.527v-4.438h-24.604l0.003-161.658
			c0-9.393-7.615-17.008-17.008-17.008H540.837z"/>
		<g>
			<g>
				<g>
					<path style="fill:#FFFFFF;stroke:#444444;stroke-width:3;stroke-linecap:round;stroke-linejoin:round;" d="M324.103,227.507
						c0-11.858,9.609-21.466,21.467-21.466c4.472,0,8.624,1.365,12.062,3.702c-4.392-3.576-9.995-5.723-16.102-5.723h-17.427h-41.24
						H170.63c-14.792,0-26.781,11.989-26.781,26.781v0.971v218.561V497.9h153.473c14.79,0,26.781-11.986,26.781-26.778v-20.789
						c0-9.89,0-206.933,0-220.167V227.507z"/>
					
						<path style="fill:#EFEFEF;stroke:#444444;stroke-width:3;stroke-linecap:round;stroke-linejoin:round;stroke-miterlimit:10;" d="
						M324.103,227.507v2.659h42.935v-0.641c0-7.983-3.668-15.104-9.406-19.782c-3.438-2.337-7.59-3.702-12.062-3.702
						C333.712,206.041,324.103,215.648,324.103,227.507z"/>
				</g>
			</g>
			<g>
				<rect x="266.645" y="266.001" style="fill:#CDCED1;" width="10.434" height="4.648"/>
				<rect x="266.645" y="288.139" style="fill:#CDCED1;" width="10.434" height="4.647"/>
				<rect x="266.645" y="310.272" style="fill:#CDCED1;" width="10.434" height="4.649"/>
				<rect x="266.645" y="243.867" style="fill:#CDCED1;" width="10.434" height="4.649"/>
				<rect x="266.645" y="332.407" style="fill:#CDCED1;" width="10.434" height="4.648"/>
				<rect x="266.645" y="354.541" style="fill:#CDCED1;" width="10.434" height="4.649"/>
				<rect x="266.645" y="376.675" style="fill:#CDCED1;" width="10.434" height="4.648"/>
				<rect x="266.645" y="398.809" style="fill:#CDCED1;" width="10.434" height="4.648"/>
				<rect x="266.645" y="398.81" style="fill:#CDCED1;" width="10.434" height="4.648"/>
				<rect x="266.645" y="420.943" style="fill:#CDCED1;" width="10.434" height="4.648"/>
				<rect x="266.645" y="443.076" style="fill:#CDCED1;" width="10.434" height="4.648"/>
			</g>
			<g>
				<polygon style="fill:#CDCED1;" points="289.335,236.906 282.486,236.906 282.486,475.012 289.335,478.683 				"/>
			</g>
			<path style="fill:#FFFFFF;stroke:#444444;stroke-width:3;stroke-linecap:round;stroke-linejoin:round;" d="M279.185,476.43
				v-21.875H98.416v21.874c0,11.192,8.566,20.43,19.502,21.425h182.733C288.792,497.853,279.185,488.285,279.185,476.43z"/>
			<rect x="177.914" y="464.745" style="fill:#B0B3B7;" width="5.3" height="6.694"/>
			<rect x="165.879" y="464.745" style="fill:#B0B3B7;" width="5.3" height="6.694"/>
			<rect x="153.843" y="464.745" style="fill:#B0B3B7;" width="5.302" height="6.694"/>
			<rect x="141.809" y="464.745" style="fill:#B0B3B7;" width="5.3" height="6.694"/>
			<rect x="129.773" y="464.745" style="fill:#B0B3B7;" width="5.302" height="6.694"/>
			<rect x="117.739" y="464.745" style="fill:#B0B3B7;" width="5.298" height="6.694"/>
			<rect x="105.703" y="464.745" style="fill:#B0B3B7;" width="5.299" height="6.694"/>
			<rect x="250.125" y="464.745" style="fill:#B0B3B7;" width="5.299" height="6.694"/>
			<rect x="238.09" y="464.745" style="fill:#B0B3B7;" width="5.3" height="6.694"/>
			<rect x="262.16" y="464.745" style="fill:#B0B3B7;" width="5.3" height="6.694"/>
			<rect x="226.054" y="464.745" style="fill:#B0B3B7;" width="5.302" height="6.694"/>
			<rect x="214.02" y="464.745" style="fill:#B0B3B7;" width="5.3" height="6.694"/>
			<rect x="201.983" y="464.745" style="fill:#B0B3B7;" width="5.302" height="6.694"/>
			<rect x="189.95" y="464.745" style="fill:#B0B3B7;" width="5.299" height="6.694"/>
			<g>
				<g>
					<path style="fill:#65CBE9;" d="M200.21,262.779c-10.642-9.88,4.306-26.013,14.968-16.114
						C225.831,256.597,210.857,272.651,200.21,262.779z M203.057,259.722c6.532,6.053,15.898-3.809,9.273-9.988
						C205.671,243.546,196.518,253.634,203.057,259.722z"/>
				</g>
				<g>
					<path style="fill:#F0777E;" d="M198.804,441.036c-8.202-12,9.947-24.408,18.151-12.408
						C225.154,440.62,207.005,453.029,198.804,441.036z M204.037,429.211c-3.095,2.115-3.889,6.357-1.768,9.458
						c2.121,3.103,6.355,3.894,9.45,1.778C219.137,435.374,211.47,424.129,204.037,429.211z"/>
				</g>
				<g>
					<path style="fill:#F0777E;" d="M202.417,389.725c-8.2-11.996,9.948-24.404,18.149-12.408
						C228.765,389.307,210.617,401.715,202.417,389.725z M207.649,377.901c-3.102,2.122-3.9,6.36-1.779,9.462
						c2.123,3.106,6.358,3.891,9.46,1.77C222.745,384.065,215.084,372.82,207.649,377.901z"/>
				</g>
				<g>
					<path style="fill:#65CBE9;" d="M193.575,349.473c-8.197-11.989,9.96-24.403,18.157-12.415
						C219.936,349.056,201.779,361.471,193.575,349.473z M197.036,347.105c5.075,7.424,16.317-0.249,11.235-7.68
						C203.201,332.009,191.961,339.683,197.036,347.105z"/>
				</g>
				<g>
					<path style="fill:#65CBE9;" d="M161.778,386.448c-8.204-11.999,9.953-24.414,18.155-12.416
						C188.132,386.02,169.975,398.435,161.778,386.448z M165.233,384.085c5.073,7.419,16.318-0.262,11.241-7.688
						C171.398,368.976,160.152,376.653,165.233,384.085z"/>
				</g>
				<g>
					<path style="fill:#65CBE9;" d="M171.584,430.478c-8.2-11.995,9.952-24.407,18.154-12.415
						C197.939,430.057,179.782,442.468,171.584,430.478z M175.046,428.11c5.078,7.426,16.315-0.247,11.234-7.683
						C181.203,413.003,169.966,420.677,175.046,428.11z"/>
				</g>
				<g>
					<path style="fill:#65CBE9;" d="M184.771,304.113c-8.196-11.989,9.948-24.397,18.143-12.408
						C211.121,303.706,192.976,316.112,184.771,304.113z M188.221,301.754c5.079,7.425,16.32-0.248,11.235-7.684
						C194.386,286.654,183.146,294.328,188.221,301.754z"/>
				</g>
				<g>
					<path style="fill:#F0777E;" d="M259.744,361.321c-11.996,8.204-24.43-9.956-12.422-18.166
						C259.311,334.958,271.733,353.124,259.744,361.321z M249.695,346.626c-7.424,5.075,0.233,16.311,7.676,11.226
						C264.789,352.778,257.12,341.549,249.695,346.626z"/>
				</g>
				<g>
					<path style="fill:#F0777E;" d="M234.948,328.792c-11.988,8.196-24.396-9.952-12.408-18.149
						C234.546,302.435,246.954,320.583,234.948,328.792z M224.9,314.097c-7.417,5.07,0.264,16.318,7.686,11.243
						C240.013,320.264,232.343,309.007,224.9,314.097z"/>
				</g>
				<g>
					
						<rect x="193.307" y="404.891" transform="matrix(0.0837 -0.9965 0.9965 0.0837 -215.3029 584.0154)" style="fill:#F0777E;" width="33.212" height="8.38"/>
				</g>
				<g>
					
						<rect x="172.004" y="388.207" transform="matrix(0.9736 -0.2281 0.2281 0.9736 -87.0514 50.7919)" style="fill:#65CBE9;" width="8.373" height="27.514"/>
				</g>
				<g>
					<polygon style="fill:#65CBE9;" points="179.679,375.177 173.459,369.56 193.555,347.245 199.792,352.861 					"/>
				</g>
				<g>
					
						<rect x="194.802" y="305.816" transform="matrix(0.9778 -0.2093 0.2093 0.9778 -62.6104 48.7464)" style="fill:#65CBE9;" width="8.38" height="28.706"/>
				</g>
				<g>
					
						<rect x="186.896" y="271.843" transform="matrix(0.254 -0.9672 0.9672 0.254 -117.1479 400.1835)" style="fill:#65CBE9;" width="27.895" height="8.378"/>
				</g>
				<g>
					<polygon style="fill:#F0777E;" points="244.724,347.708 231.442,330.147 238.14,325.105 251.419,342.661 					"/>
				</g>
				<g>
					<path style="fill:#F0777E;" d="M228.724,287.224c-8.198-11.991,9.947-24.399,18.147-12.408
						C255.075,286.815,236.929,299.221,228.724,287.224z M232.179,284.86c5.074,7.423,16.315-0.249,11.233-7.681
						C238.34,269.764,227.101,277.438,232.179,284.86z"/>
				</g>
				<g>
					
						<rect x="223.164" y="295.768" transform="matrix(0.2873 -0.9578 0.9578 0.2873 -120.6991 437.6951)" style="fill:#F0777E;" width="21.217" height="8.375"/>
				</g>
				<g>
					<polygon style="fill:#F0777E;" points="220.876,380.492 215.999,373.671 243.953,353.724 248.814,360.541 					"/>
				</g>
			</g>
		</g>
		<g>
			<g>
				<g>
					<g>
						<g>
							<g>
								
									<path style="fill:#EFEFEF;stroke:#444444;stroke-width:3;stroke-linecap:round;stroke-linejoin:round;stroke-miterlimit:10;" d="
									M263.249,302.292c0-7.748,6.277-14.022,14.021-14.022h265.468c7.741,0,14.021,6.274,14.021,14.022l-0.004,166.223H263.244
									L263.249,302.292z"/>
								<g>
									
										<path style="fill:#EFEFEF;stroke:#444444;stroke-width:3;stroke-linecap:round;stroke-linejoin:round;stroke-miterlimit:10;" d="
										M243.164,468.515v6.072c0,16.899,13.699,23.313,30.6,23.313h272.475c16.9,0,30.6-6.414,30.6-23.313v-6.072H243.164z"/>
								</g>
								
									<rect x="283.462" y="310.793" style="fill:#65CBE9;stroke:#444444;stroke-width:3;stroke-linecap:round;stroke-linejoin:round;stroke-miterlimit:10;" width="256.539" height="147.795"/>
							</g>
						</g>
					</g>
				</g>
			</g>
			<g>
				<rect x="332.694" y="339.156" style="fill:#FFFFFF;" width="32.328" height="3.103"/>
				<rect x="332.694" y="345.703" style="fill:#FFFFFF;" width="50.065" height="3.103"/>
				<rect x="332.694" y="352.249" style="fill:#FFFFFF;" width="42.207" height="3.103"/>
				<g>
					<g>
						
							<rect x="333.763" y="413.631" style="fill:#F0777E;stroke:#444444;stroke-width:3;stroke-miterlimit:10;" width="20.118" height="24.036"/>
						
							<rect x="363.778" y="399.702" style="fill:#FAD978;stroke:#444444;stroke-width:3;stroke-miterlimit:10;" width="20.119" height="37.965"/>
						
							<rect x="393.795" y="386.772" style="fill:#A9CD68;stroke:#444444;stroke-width:3;stroke-miterlimit:10;" width="20.121" height="50.895"/>
						
							<rect x="423.813" y="392.71" style="fill:#F0777E;stroke:#444444;stroke-width:3;stroke-miterlimit:10;" width="20.119" height="44.956"/>
						
							<rect x="453.83" y="364.704" style="fill:#FAD978;stroke:#444444;stroke-width:3;stroke-miterlimit:10;" width="20.119" height="72.962"/>
						
							<rect x="483.846" y="333.531" style="fill:#A9CD68;stroke:#444444;stroke-width:3;stroke-miterlimit:10;" width="20.119" height="104.135"/>
						<g>
							<rect x="311.821" y="340.043" style="fill:#FFFFFF;" width="7.207" height="3.21"/>
							<rect x="311.821" y="356.164" style="fill:#FFFFFF;" width="7.207" height="3.211"/>
							<rect x="311.821" y="372.286" style="fill:#FFFFFF;" width="7.207" height="3.211"/>
							<rect x="311.821" y="388.408" style="fill:#FFFFFF;" width="7.207" height="3.211"/>
							<rect x="311.821" y="404.529" style="fill:#FFFFFF;" width="7.207" height="3.21"/>
							<rect x="311.821" y="420.649" style="fill:#FFFFFF;" width="7.207" height="3.21"/>
							<rect x="311.821" y="436.77" style="fill:#FFFFFF;" width="7.207" height="3.211"/>
						</g>
					</g>
					<path style="fill:none;stroke:#EFEFEF;stroke-width:3;stroke-miterlimit:10;" d="M341.239,389.578l20.681-17.162l9.267,11.11
						l30.964-25.992c0,0,13.473,16.462,14.644,17.893l37.497-31.2"/>
					<polyline style="fill:none;stroke:#444444;stroke-width:3;stroke-miterlimit:10;" points="323.732,340.05 323.732,438.505 
						509.8,438.505 					"/>
				</g>
			</g>
		</g>
		<g>
			
				<rect x="689.514" y="450.732" transform="matrix(0.3195 -0.9476 0.9476 0.3195 35.4743 977.6241)" style="fill:#FFFFFF;stroke:#444444;stroke-width:3;stroke-miterlimit:10;" width="17.722" height="26.765"/>
			<path style="fill:#FFFFFF;stroke:#444444;stroke-width:3;stroke-miterlimit:10;" d="M658.809,396.952
				c26.689,9.001,41.028,37.933,32.026,64.621c-9.002,26.686-37.933,41.028-64.621,32.027c-26.69-9.003-41.027-37.931-32.027-64.622
				C603.188,402.292,632.121,387.951,658.809,396.952z"/>
			<path style="fill:#65CBE9;stroke:#444444;stroke-miterlimit:10;" d="M655.184,407.697c20.755,7.001,31.906,29.499,24.905,50.252
				c-6.998,20.751-29.497,31.904-50.251,24.904c-20.755-6.999-31.905-29.498-24.904-50.251
				C611.933,411.849,634.433,400.699,655.184,407.697z"/>
			<path style="fill:#F0777E;stroke:#444444;stroke-width:3;stroke-miterlimit:10;" d="M753.572,467.505
				c7.522,2.538,11.566,10.695,9.027,18.217c-2.539,7.523-10.694,11.568-18.216,9.03l-36.295-12.189
				c-2.272-0.764-3.491-3.226-2.726-5.5l6.414-19.02c0.767-2.27,3.229-3.49,5.499-2.725L753.572,467.505z"/>
		</g>
		<g>
			<defs>
				<path id="SVGID_1_" d="M649.634,405.855c21.772,3.936,36.231,24.774,32.297,46.544c-3.934,21.767-24.773,36.229-46.543,32.295
					c-21.772-3.935-36.231-24.773-32.296-46.544C607.027,416.382,627.867,401.923,649.634,405.855z"/>
			</defs>
			<use xlink:href="#SVGID_1_"  style="overflow:visible;fill:#3DD0EC;"/>
			<clipPath id="SVGID_00000077292450945744383980000000555608453060627110_">
				<use xlink:href="#SVGID_1_"  style="overflow:visible;"/>
			</clipPath>
			<g style="clip-path:url(#SVGID_00000077292450945744383980000000555608453060627110_);">
				<path style="fill:#36B8D1;stroke:#444444;stroke-width:6;stroke-miterlimit:10;" d="M606.215,412.101l-6.018-57.184
					c31.739-3.34,60.195,19.484,63.911,51.092L606.215,412.101z"/>
				<path style="fill:#A9CD68;stroke:#444444;stroke-width:3;stroke-miterlimit:10;" d="M658.277,406.297
					c0.012,0.116,0.023,0.222,0.033,0.322c3.028,28.78-17.843,54.559-46.613,57.585c-28.78,3.028-54.564-17.841-57.592-46.621
					c-0.011-0.1-0.004-0.207-0.016-0.323L658.277,406.297z"/>
				<path style="fill:#FAD978;stroke:#444444;stroke-width:3;stroke-miterlimit:10;" d="M606.188,411.841l39.24-48.481
					c26.901,21.785,31.209,61.113,9.825,88.199L606.188,411.841z"/>
				<path style="fill:#F0777E;stroke:#444444;stroke-width:6;stroke-miterlimit:10;" d="M606.193,412.159l-20.69,53.664
					c-29.775-11.488-44.71-44.772-33.62-74.605L606.193,412.159z"/>
				<path style="fill:#F0777E;stroke:#444444;stroke-width:3;stroke-miterlimit:10;" d="M606.229,411.774l24.65,55.609
					c-30.857,13.676-66.922-0.043-80.93-30.654L606.229,411.774z"/>
				<path style="fill:#65CBE9;stroke:#444444;stroke-width:3;stroke-miterlimit:10;" d="M585.698,413.935
					c1.191,11.315,11.331,19.517,22.638,18.327c11.312-1.19,19.505-11.322,18.315-22.637c-1.19-11.299-11.313-19.516-22.625-18.326
					C592.719,392.489,584.51,402.634,585.698,413.935z"/>
			</g>
			<use xlink:href="#SVGID_1_"  style="overflow:visible;fill:none;stroke:#444444;stroke-width:3;stroke-miterlimit:10;"/>
		</g>
		<line style="fill:#FFFFFD;stroke:#444444;stroke-width:3;stroke-miterlimit:10;" x1="786.166" y1="497.9" x2="63.7" y2="497.9"/>
		
			<line style="fill:none;stroke:#444444;stroke-width:3;stroke-miterlimit:10;" x1="383.292" y1="121.14" x2="293.051" y2="121.14"/>
		
			<line style="fill:none;stroke:#444444;stroke-width:3;stroke-miterlimit:10;stroke-dasharray:2;" x1="385.022" y1="170.844" x2="307.251" y2="170.844"/>
		
			<line style="fill:none;stroke:#444444;stroke-width:3;stroke-miterlimit:10;" x1="436.976" y1="121.14" x2="397.064" y2="121.14"/>
		
			<line style="fill:none;stroke:#444444;stroke-width:3;stroke-miterlimit:10;" x1="765.749" y1="350.786" x2="725.836" y2="350.786"/>
		<polyline style="fill:none;stroke:#444444;stroke-width:3;stroke-miterlimit:10;" points="81.476,333.439 88.553,340.518 
			103.18,325.89 		"/>
		<g>
			
				<line style="fill:none;stroke:#444444;stroke-width:3;stroke-miterlimit:10;" x1="240.773" y1="125.24" x2="222.111" y2="125.24"/>
			
				<line style="fill:none;stroke:#444444;stroke-width:3;stroke-miterlimit:10;" x1="231.441" y1="134.571" x2="231.441" y2="115.908"/>
		</g>
		<g>
			
				<line style="fill:none;stroke:#444444;stroke-width:3;stroke-miterlimit:10;" x1="528.773" y1="224.669" x2="515.577" y2="211.472"/>
			
				<line style="fill:none;stroke:#444444;stroke-width:3;stroke-miterlimit:10;" x1="515.577" y1="224.669" x2="528.773" y2="211.472"/>
		</g>
		
			<line style="fill:none;stroke:#444444;stroke-width:3;stroke-miterlimit:10;" x1="638.146" y1="177.178" x2="728.386" y2="177.178"/>
		
			<line style="fill:none;stroke:#444444;stroke-width:3;stroke-miterlimit:10;" x1="700.21" y1="191.439" x2="740.123" y2="191.439"/>
		
			<line style="fill:none;stroke:#444444;stroke-width:3;stroke-miterlimit:10;" x1="115.137" y1="213.744" x2="75.224" y2="213.744"/>
		
			<line style="fill:none;stroke:#444444;stroke-width:3;stroke-miterlimit:10;" x1="119.888" y1="239.058" x2="105.794" y2="239.058"/>
		
			<line style="fill:none;stroke:#444444;stroke-width:3;stroke-miterlimit:10;" x1="192.366" y1="160.442" x2="119.393" y2="160.442"/>
		<line style="fill:none;stroke:#444444;stroke-width:3;stroke-miterlimit:10;" x1="639.82" y1="162.92" x2="679.732" y2="162.92"/>
		
			<line style="fill:none;stroke:#444444;stroke-width:3;stroke-miterlimit:10;" x1="471.021" y1="160.433" x2="510.933" y2="160.433"/>
		
			<line style="fill:none;stroke:#444444;stroke-width:3;stroke-miterlimit:10;" x1="260.302" y1="186.494" x2="303.799" y2="186.494"/>
		<path style="fill:none;stroke:#444444;stroke-width:3;stroke-linecap:round;stroke-linejoin:round;stroke-miterlimit:10;" d="
			M783.501,350.998c0,3.153-2.568,5.714-5.724,5.714c-3.154,0-5.714-2.562-5.714-5.714c0-3.162,2.56-5.724,5.714-5.724
			C780.933,345.273,783.501,347.835,783.501,350.998z"/>
		<g>
			<g>
				
					<line style="fill:none;stroke:#444444;stroke-width:3;stroke-miterlimit:10;" x1="620.688" y1="218.104" x2="619.688" y2="218.104"/>
				
					<line style="fill:none;stroke:#444444;stroke-width:3;stroke-miterlimit:10;stroke-dasharray:1.9612,1.9612;" x1="617.727" y1="218.104" x2="536.338" y2="218.104"/>
				
					<line style="fill:none;stroke:#444444;stroke-width:3;stroke-miterlimit:10;" x1="535.358" y1="218.104" x2="534.358" y2="218.104"/>
			</g>
		</g>
		
			<line style="fill:none;stroke:#444444;stroke-width:3;stroke-miterlimit:10;" x1="571.044" y1="259.714" x2="527.317" y2="259.714"/>
		
			<line style="fill:none;stroke:#444444;stroke-width:3;stroke-miterlimit:10;stroke-dasharray:2;" x1="418.374" y1="96.007" x2="367.674" y2="96.007"/>
		
			<rect x="627.711" y="290.981" style="fill:none;stroke:#444444;stroke-width:3;stroke-miterlimit:10;" width="8.384" height="12.646"/>
		
			<rect x="642.496" y="275.454" style="fill:none;stroke:#444444;stroke-width:3;stroke-miterlimit:10;" width="8.385" height="28.174"/>
		
			<rect x="657.281" y="280.345" style="fill:none;stroke:#444444;stroke-width:3;stroke-miterlimit:10;" width="8.385" height="23.283"/>
		
			<rect x="672.067" y="267.38" style="fill:none;stroke:#444444;stroke-width:3;stroke-miterlimit:10;" width="8.383" height="36.248"/>
		<polyline style="fill:none;stroke:#444444;stroke-width:3;stroke-miterlimit:10;" points="685.404,303.628 621.31,303.628 
			621.31,263.362 		"/>
		<g>
			<polyline style="fill:none;stroke:#444444;stroke-width:3;stroke-miterlimit:10;" points="576.822,146.575 518.398,146.575 
				518.398,124.517 			"/>
			<g>
				<g>
					<path style="fill:none;stroke:#444444;stroke-width:3;stroke-miterlimit:10;" d="M555.152,141.163
						c-9.866-0.671-10.221-16.136-10.569-31.092c-0.214-9.382-0.483-21.028-4.032-21.34c-3.548,0.312-3.817,11.957-4.032,21.34
						c-0.347,14.956-0.702,30.421-10.569,31.092"/>
				</g>
				<g>
					<path style="fill:none;stroke:#444444;stroke-width:3;stroke-miterlimit:10;" d="M573.849,141.165
						c-9.894,0-11.801-10.2-13.195-17.648c-1.039-5.566-1.883-9.241-3.979-9.344c-2.098,0.104-2.941,3.778-3.982,9.344
						c-1.391,7.448-3.298,17.648-13.194,17.648"/>
				</g>
			</g>
		</g>
		<g>
			<g>
				<g>
					<path style="fill:#444444;" d="M452.327,222.73c0.014,0,0.029,0,0.044,0.001l3.887,1.251c0.097,0.032,0.145,0.102,0.166,0.141
						c0.021,0.038,0.049,0.119,0.017,0.216l-0.93,2.89l0.542,0.29c1.292,0.691,2.479,1.544,3.525,2.536l0.445,0.424l2.442-1.787
						c0.063-0.046,0.124-0.081,0.188-0.081c0.066,0,0.134,0.038,0.21,0.142l2.409,3.296c0.091,0.127,0.066,0.306-0.061,0.397
						l-2.443,1.786l0.271,0.555c0.644,1.32,1.107,2.71,1.377,4.13l0.116,0.602l2.998-0.008c0.154,0,0.283,0.128,0.283,0.283
						l0.01,4.084c0.001,0.102-0.05,0.169-0.083,0.2c-0.03,0.032-0.096,0.084-0.2,0.084l-2.983,0.009l-0.108,0.608
						c-0.132,0.749-0.311,1.481-0.534,2.172c-0.201,0.627-0.465,1.28-0.801,1.995l-0.261,0.553l2.41,1.741
						c0.083,0.061,0.107,0.142,0.114,0.184c0.007,0.044,0.01,0.128-0.05,0.211l-2.391,3.312c-0.077,0.104-0.186,0.116-0.23,0.116
						c-0.042,0-0.104-0.01-0.166-0.054l-2.391-1.726l-0.443,0.429c-1.056,1.02-2.247,1.894-3.543,2.598l-0.54,0.293l0.915,2.793
						c0.049,0.148-0.032,0.309-0.18,0.358l-3.969,1.287c-0.102,0-0.227-0.06-0.27-0.194l-0.916-2.795l-0.609,0.082
						c-0.8,0.109-1.511,0.164-2.225,0.164c-0.691,0-1.385-0.052-2.169-0.156l-0.611-0.082l-0.902,2.805
						c-0.045,0.136-0.169,0.197-0.272,0.197l-3.973-1.264c-0.15-0.048-0.233-0.208-0.185-0.357l0.902-2.805l-0.542-0.29
						c-1.304-0.7-2.5-1.566-3.554-2.575l-0.446-0.427l-2.387,1.745c-0.062,0.045-0.122,0.081-0.186,0.081
						c-0.066,0-0.134-0.038-0.21-0.143l-2.41-3.297c-0.059-0.082-0.058-0.168-0.05-0.212c0.006-0.043,0.029-0.124,0.113-0.184
						l2.403-1.757l-0.266-0.553c-0.639-1.327-1.096-2.726-1.36-4.156l-0.111-0.606l-2.984,0.008c-0.155,0-0.283-0.127-0.284-0.282
						l-0.009-4.085c-0.001-0.102,0.051-0.169,0.081-0.2c0.031-0.032,0.098-0.083,0.2-0.083l2.998-0.01l0.11-0.602
						c0.135-0.736,0.303-1.414,0.516-2.077c0.213-0.66,0.485-1.335,0.834-2.065l0.266-0.555l-2.447-1.768
						c-0.126-0.092-0.156-0.27-0.063-0.397l2.391-3.311c0.077-0.106,0.145-0.144,0.211-0.144c0.063,0,0.123,0.035,0.185,0.08
						l2.448,1.77l0.444-0.426c1.049-1.004,2.231-1.865,3.512-2.559l0.541-0.293l-0.942-2.877c-0.048-0.149,0.032-0.309,0.18-0.358
						l3.972-1.287c0.102,0,0.224,0.061,0.269,0.195l0.947,2.892l0.608-0.083c0.797-0.107,1.502-0.161,2.209-0.161
						c0.68,0,1.361,0.05,2.125,0.152l0.61,0.082l0.933-2.9C452.054,222.79,452.162,222.73,452.327,222.73 M448.33,251.107
						c4.981,0,9.033-4.051,9.033-9.033c0-4.98-4.052-9.033-9.033-9.033c-4.981,0-9.033,4.053-9.033,9.033
						C439.296,247.056,443.349,251.107,448.33,251.107 M452.327,219.73L452.327,219.73L452.327,219.73
						c-1.478,0-2.721,0.886-3.167,2.258l-0.195,0.605c-0.208-0.008-0.414-0.011-0.621-0.011c-0.238,0-0.476,0.005-0.718,0.015
						l-0.195-0.597c-0.448-1.356-1.701-2.261-3.119-2.261h-0.474l-0.451,0.146l-3.972,1.287c-1.723,0.576-2.659,2.425-2.111,4.13
						l0.198,0.605c-0.372,0.252-0.735,0.516-1.088,0.793l-0.499-0.361c-0.6-0.432-1.251-0.649-1.942-0.649
						c-1.041,0-2.003,0.504-2.64,1.383l-2.395,3.316c-0.503,0.688-0.719,1.584-0.58,2.443c0.138,0.861,0.603,1.619,1.307,2.133
						l0.498,0.36c-0.084,0.228-0.163,0.455-0.236,0.682c-0.065,0.202-0.126,0.405-0.184,0.609l-0.596,0.002
						c-0.873,0-1.731,0.363-2.344,0.995c-0.591,0.591-0.94,1.452-0.928,2.332l0.009,4.049c0.017,1.816,1.49,3.275,3.284,3.275
						l0.584-0.001c0.127,0.439,0.27,0.875,0.427,1.305l-0.463,0.339c-0.689,0.499-1.166,1.275-1.303,2.125
						c-0.139,0.85,0.069,1.737,0.573,2.44l2.427,3.32c0.629,0.868,1.591,1.372,2.632,1.372c0.704,0,1.365-0.224,1.964-0.664
						l0.43-0.314c0.366,0.285,0.742,0.558,1.129,0.817l-0.166,0.515c-0.269,0.835-0.196,1.726,0.207,2.508
						c0.403,0.782,1.086,1.36,1.925,1.626l3.972,1.264l0.444,0.141h0.466c1.421,0,2.676-0.908,3.121-2.258l0.167-0.519
						c0.223,0.009,0.445,0.013,0.666,0.013c0.244,0,0.488-0.005,0.736-0.016l0.163,0.498c0.444,1.353,1.698,2.26,3.121,2.26h0.474
						l0.451-0.146l3.969-1.287c0.848-0.28,1.525-0.863,1.919-1.649c0.395-0.785,0.459-1.676,0.182-2.509l-0.162-0.495
						c0.386-0.262,0.762-0.538,1.128-0.827l0.434,0.313c0.574,0.41,1.234,0.621,1.922,0.621c1.038,0,2.026-0.499,2.643-1.334
						l2.41-3.338c0.51-0.705,0.721-1.605,0.576-2.465c-0.133-0.837-0.598-1.595-1.306-2.111l-0.467-0.338
						c0.075-0.206,0.145-0.409,0.209-0.611c0.074-0.23,0.145-0.465,0.211-0.703l0.566-0.002c0.863,0,1.704-0.35,2.314-0.964
						c0.62-0.618,0.969-1.468,0.96-2.348l-0.01-4.063c-0.006-1.807-1.478-3.276-3.283-3.276l-0.612,0.002
						c-0.127-0.432-0.27-0.86-0.428-1.284l0.493-0.361c1.45-1.048,1.781-3.103,0.726-4.57l-2.423-3.315
						c-0.642-0.874-1.6-1.372-2.632-1.372c-0.69,0-1.342,0.217-1.937,0.643l-0.524,0.383c-0.353-0.273-0.717-0.535-1.089-0.783
						l0.192-0.596c0.275-0.823,0.194-1.766-0.232-2.557c-0.387-0.737-1.059-1.304-1.877-1.571l-3.898-1.255l-0.362-0.116
						l-0.379-0.023l-0.089-0.005L452.327,219.73L452.327,219.73L452.327,219.73z M448.33,248.107c-3.327,0-6.033-2.706-6.033-6.033
						c0-3.327,2.707-6.033,6.033-6.033c3.327,0,6.033,2.706,6.033,6.033C454.363,245.401,451.656,248.107,448.33,248.107
						L448.33,248.107z"/>
				</g>
			</g>
			<g>
				<g>
					<path style="fill:none;stroke:#444444;stroke-width:3;stroke-miterlimit:10;" d="M433.495,209.19
						c-0.252-0.183-0.348-0.508-0.282-0.812c0.161-0.755,0.252-1.535,0.252-2.337c0-0.803-0.091-1.583-0.252-2.337
						c-0.065-0.304,0.03-0.629,0.282-0.813l3.498-2.541c0.223-0.163,0.272-0.475,0.11-0.698l-4.114-5.664
						c-0.162-0.223-0.476-0.273-0.698-0.11l-3.377,2.453c-0.256,0.186-0.602,0.156-0.87-0.01c-1.383-0.856-2.963-1.42-4.655-1.62
						c-0.309-0.037-0.587-0.23-0.683-0.526l-1.24-3.814c-0.085-0.263-0.367-0.406-0.63-0.321l-6.657,2.163
						c-0.263,0.085-0.406,0.367-0.321,0.63l1.169,3.597c0.084,0.258,0.046,0.554-0.165,0.725c-1.429,1.154-2.57,2.643-3.31,4.35
						c-0.129,0.297-0.393,0.537-0.717,0.537h-3.667c-0.276,0-0.5,0.224-0.5,0.5v7c0,0.276,0.224,0.5,0.5,0.5h3.667
						c0.274,0,0.546,0.13,0.651,0.383c0.715,1.72,1.837,3.225,3.247,4.399c0.246,0.205,0.392,0.525,0.293,0.829l-1.169,3.597
						c-0.085,0.263,0.059,0.545,0.321,0.63l6.657,2.164c0.263,0.085,0.545-0.059,0.63-0.321l1.24-3.814
						c0.101-0.312,0.411-0.492,0.737-0.532c1.689-0.208,3.266-0.779,4.645-1.641c0.255-0.159,0.583-0.16,0.826,0.017l3.377,2.453
						c0.223,0.163,0.536,0.113,0.698-0.11l4.115-5.664c0.162-0.223,0.112-0.536-0.11-0.698L433.495,209.19z"/>
				</g>
				<circle style="fill:none;stroke:#444444;stroke-width:3;stroke-miterlimit:10;" cx="421.934" cy="206.041" r="4.25"/>
			</g>
		</g>
	</g>
	<path style="fill:none;stroke:#EFEFEF;stroke-width:3;stroke-miterlimit:10;" d="M454.24,353.807l0.297-9.081
		c0-0.003-0.001-0.009-0.001-0.012c0.015-0.443-0.348-0.947-0.927-0.931c-0.005,0-0.01-0.001-0.016-0.001l-9.081,0.297"/>
</g>
<g id="txt">
	<g>
		<g>
			<path style="fill:#444444;" d="M339.866,580.823l-3.587-9.167h-11.552l-3.548,9.167h-3.391l11.394-28.938h2.819l11.335,28.938
				H339.866z M335.234,568.641l-3.351-8.93c-0.434-1.13-0.881-2.517-1.341-4.159c-0.289,1.261-0.703,2.648-1.242,4.159l-3.391,8.93
				H335.234z"/>
			<path style="fill:#444444;" d="M369.81,580.823h-3.824l-15.751-24.188h-0.158c0.21,2.838,0.315,5.441,0.315,7.806v16.381h-3.095
				v-28.82h3.785l15.711,24.089h0.158c-0.026-0.355-0.085-1.495-0.177-3.42c-0.092-1.925-0.125-3.302-0.099-4.13v-16.539h3.134
				V580.823z"/>
			<path style="fill:#444444;" d="M395.851,580.823l-3.587-9.167h-11.552l-3.548,9.167h-3.391l11.394-28.938h2.819l11.335,28.938
				H395.851z M391.218,568.641l-3.351-8.93c-0.434-1.13-0.881-2.517-1.341-4.159c-0.289,1.261-0.703,2.648-1.242,4.159l-3.391,8.93
				H391.218z"/>
			<path style="fill:#444444;" d="M403.282,580.823v-28.82h3.351v25.784h12.715v3.036H403.282z"/>
			<path style="fill:#444444;" d="M431.57,566.413l7.688-14.41h3.627l-9.62,17.643v11.177h-3.391v-11.019l-9.6-17.8h3.666
				L431.57,566.413z"/>
			<path style="fill:#444444;" d="M455.718,580.823h-3.351V554.98h-9.127v-2.977h21.605v2.977h-9.127V580.823z"/>
			<path style="fill:#444444;" d="M469.182,580.823v-28.82h3.351v28.82H469.182z"/>
			<path style="fill:#444444;" d="M492.778,554.585c-3.167,0-5.667,1.055-7.5,3.164c-1.834,2.109-2.75,4.997-2.75,8.664
				c0,3.772,0.884,6.686,2.651,8.743c1.768,2.057,4.288,3.085,7.56,3.085c2.011,0,4.304-0.361,6.879-1.084v2.937
				c-1.998,0.749-4.462,1.123-7.392,1.123c-4.245,0-7.521-1.288-9.827-3.863c-2.307-2.576-3.46-6.236-3.46-10.98
				c0-2.97,0.555-5.572,1.666-7.807c1.11-2.234,2.713-3.955,4.81-5.165c2.096-1.209,4.564-1.813,7.402-1.813
				c3.022,0,5.664,0.552,7.925,1.656l-1.419,2.878C497.141,555.098,494.96,554.585,492.778,554.585z"/>
			<path style="fill:#444444;" d="M522.169,573.155c0,2.537-0.92,4.515-2.76,5.934c-1.84,1.419-4.337,2.129-7.491,2.129
				c-3.417,0-6.045-0.44-7.885-1.32v-3.233c1.183,0.499,2.471,0.893,3.864,1.183c1.393,0.289,2.773,0.434,4.14,0.434
				c2.234,0,3.916-0.424,5.046-1.271c1.13-0.848,1.695-2.027,1.695-3.539c0-0.999-0.2-1.816-0.601-2.454
				c-0.401-0.637-1.071-1.225-2.011-1.764c-0.94-0.539-2.369-1.15-4.288-1.833c-2.681-0.959-4.596-2.096-5.746-3.41
				c-1.15-1.314-1.725-3.029-1.725-5.145c0-2.221,0.835-3.988,2.504-5.303c1.668-1.314,3.876-1.971,6.623-1.971
				c2.865,0,5.5,0.526,7.905,1.577l-1.045,2.917c-2.379-0.999-4.692-1.499-6.939-1.499c-1.774,0-3.161,0.381-4.159,1.144
				c-0.999,0.762-1.499,1.82-1.499,3.174c0,0.999,0.184,1.817,0.552,2.454c0.368,0.638,0.989,1.222,1.863,1.754
				c0.874,0.532,2.211,1.121,4.012,1.764c3.022,1.078,5.102,2.234,6.239,3.47C521.601,569.581,522.169,571.184,522.169,573.155z"/>
		</g>
	</g>
</g>
</svg>
